<?xml version="1.0" standalone="no"?>
<!DOCTYPE svg PUBLIC "-//W3C//DTD SVG 20010904//EN"
 "http://www.w3.org/TR/2001/REC-SVG-20010904/DTD/svg10.dtd">
<svg version="1.0" xmlns="http://www.w3.org/2000/svg"
 width="500.000000pt" height="500.000000pt" viewBox="0 0 500.000000 500.000000"
 preserveAspectRatio="xMidYMid meet">

<g transform="translate(0.000000,500.000000) scale(0.100000,-0.100000)"
fill="#ffffff" stroke="none">
<path d="M2335 4293 c-56 -12 -172 -58 -227 -90 -80 -47 -182 -151 -231 -235
l-38 -65 -81 -16 c-108 -21 -195 -66 -273 -138 -124 -116 -178 -239 -179 -404
0 -108 13 -162 61 -261 34 -72 159 -201 221 -228 l42 -19 0 -336 c0 -370 2
-380 63 -425 28 -21 36 -21 776 -21 697 0 749 1 774 18 62 40 62 41 65 388 l3
317 58 21 c259 94 411 362 356 626 -63 303 -355 496 -657 434 -261 -54 -455
-313 -434 -578 3 -41 8 -76 10 -78 2 -2 14 -1 28 2 23 6 24 9 25 108 1 156 46
260 157 365 221 209 579 162 747 -99 96 -150 96 -368 0 -518 -67 -103 -190
-192 -308 -221 l-42 -11 -3 -333 c-3 -312 -4 -335 -22 -355 -19 -21 -20 -21
-755 -21 -405 0 -741 4 -747 8 -31 20 -34 54 -34 401 l0 349 -32 11 c-41 14
-135 84 -175 131 -77 90 -116 200 -117 325 0 247 181 451 433 487 l82 12 35
67 c95 180 287 310 482 326 71 6 72 6 72 34 0 29 -1 29 -57 28 -32 -1 -67 -3
-78 -6z"/>
<path d="M2320 4087 c-159 -54 -266 -158 -322 -310 -11 -32 -28 -62 -37 -66
-9 -5 -52 -9 -96 -9 -115 0 -182 -28 -261 -106 -84 -84 -107 -147 -102 -271 8
-173 87 -270 281 -344 15 -6 32 -22 37 -37 6 -14 10 -166 10 -360 l0 -334 640
0 639 0 3 345 c3 301 5 346 19 360 10 10 46 20 88 26 133 16 229 85 292 211
29 58 31 67 27 147 -3 74 -9 95 -38 149 -39 73 -92 124 -170 161 -75 35 -210
37 -284 3 -123 -56 -200 -160 -219 -294 -6 -37 -5 -38 27 -38 32 0 33 1 39 51
22 187 245 301 419 216 106 -52 168 -150 168 -267 0 -68 -25 -124 -82 -186
-51 -55 -110 -84 -199 -95 -73 -9 -100 -22 -127 -61 -15 -20 -17 -64 -20 -345
l-3 -323 -580 0 -579 0 0 304 c0 167 -3 318 -6 335 -10 46 -52 84 -119 105
-46 14 -72 31 -115 75 -72 72 -95 132 -88 235 6 82 28 133 85 189 64 65 104
80 225 87 101 5 109 7 138 35 17 16 33 41 37 55 8 36 51 119 82 159 14 19 52
54 84 78 139 102 334 111 480 22 50 -31 60 -31 77 1 9 17 3 23 -42 50 -126 72
-282 91 -408 47z"/>
<path d="M1715 1788 c-3 -13 -4 -77 -3 -143 l3 -120 25 0 c23 0 25 4 28 58 l3
57 69 0 70 0 0 -44 c0 -60 8 -76 36 -76 l25 0 -3 142 c-3 131 -5 143 -22 146
-26 5 -36 -14 -36 -70 l0 -48 -70 0 -69 0 -3 58 c-3 50 -6 57 -25 60 -16 2
-24 -3 -28 -20z"/>
<path d="M2219 1793 c-41 -25 -59 -64 -59 -128 0 -68 20 -109 62 -131 44 -23
123 -21 157 3 81 59 80 203 -1 253 -41 25 -122 26 -159 3z m132 -52 c23 -23
29 -38 29 -71 0 -96 -77 -144 -135 -85 -21 20 -25 34 -25 80 0 46 4 60 25 80
33 33 70 32 106 -4z"/>
<path d="M2624 1797 c-2 -7 -3 -71 -2 -143 3 -125 4 -129 26 -132 21 -3 22 -1
22 77 0 45 3 81 8 81 4 0 22 -27 41 -61 22 -41 38 -59 49 -57 10 2 33 32 52
68 l35 65 3 -87 c3 -86 3 -88 28 -88 l25 0 -3 143 c-3 134 -4 142 -23 145 -17
2 -30 -14 -69 -89 l-49 -91 -49 91 c-36 67 -55 91 -69 91 -11 0 -22 -6 -25
-13z"/>
<path d="M3104 1797 c-2 -7 -3 -71 -2 -143 l3 -129 100 0 c82 0 100 3 100 15
0 12 -16 16 -72 18 l-73 3 0 39 0 40 58 0 c64 0 88 10 79 34 -5 12 -21 16 -72
16 l-65 0 0 35 0 35 64 0 c64 0 96 16 81 40 -10 16 -194 13 -201 -3z"/>
<path d="M1372 1298 l3 -143 92 0 c82 0 95 3 114 22 29 28 29 76 1 106 l-22
24 20 18 c27 24 25 61 -5 90 -22 23 -32 25 -115 25 l-91 0 3 -142z m149 92
c21 -12 25 -40 7 -58 -7 -7 -31 -12 -55 -12 l-43 0 0 40 c0 39 1 40 36 40 19
0 44 -5 55 -10z m4 -120 c21 -8 26 -16 23 -38 -3 -26 -6 -27 -60 -30 l-58 -3
0 41 c0 39 1 40 34 40 19 0 47 -5 61 -10z"/>
<path d="M1821 1309 c-34 -73 -60 -138 -57 -146 10 -25 42 -14 59 22 l17 35
70 0 71 0 15 -36 c12 -27 20 -35 37 -32 32 4 26 27 -40 164 -50 102 -62 119
-84 122 -24 3 -30 -6 -88 -129z m114 14 c11 -26 22 -51 23 -55 2 -4 -20 -8
-48 -8 -28 0 -50 3 -48 8 2 4 11 28 22 55 10 26 21 47 25 47 3 0 15 -21 26
-47z"/>
<path d="M2230 1295 l0 -145 24 0 c29 0 36 16 36 82 l0 51 69 -66 c70 -68 97
-80 108 -51 4 10 -13 35 -53 75 l-58 59 52 53 c52 52 66 87 36 87 -9 0 -46
-27 -82 -60 l-67 -60 -3 37 c-5 70 -11 83 -37 83 l-25 0 0 -145z"/>
<path d="M2642 1298 l3 -143 93 -3 c78 -2 93 0 99 14 9 24 -14 34 -79 34 l-58
0 0 40 0 40 65 0 c58 0 65 2 65 20 0 18 -7 20 -65 20 l-65 0 0 40 0 40 70 0
c63 0 70 2 70 20 0 19 -7 20 -100 20 l-101 0 3 -142z"/>
<path d="M3015 1428 c-3 -8 -4 -72 -3 -144 l3 -129 25 0 c23 0 25 4 28 50 2
28 7 54 12 59 19 19 58 -5 94 -59 35 -53 66 -70 81 -45 8 13 -30 75 -57 95
-21 14 -21 14 4 26 48 21 62 89 29 130 -17 22 -29 24 -115 27 -75 3 -97 1
-101 -10z m156 -38 c21 -12 25 -50 7 -68 -7 -7 -34 -12 -60 -12 l-48 0 0 45 0
45 41 0 c22 0 49 -5 60 -10z"/>
<path d="M3404 1425 c-4 -9 14 -38 44 -73 49 -57 51 -61 54 -128 3 -66 4 -69
28 -69 24 0 25 3 30 68 5 63 8 72 54 127 48 60 55 90 19 90 -10 -1 -36 -23
-57 -50 -22 -28 -42 -50 -45 -50 -4 0 -24 23 -46 50 -40 50 -71 63 -81 35z"/>
<path d="M1632 958 c2 -66 2 -68 5 -19 l4 55 26 -44 26 -43 23 44 23 44 1 -47
c0 -26 5 -50 10 -53 6 -4 10 20 10 64 0 39 -4 71 -8 71 -4 0 -18 -20 -30 -45
-12 -25 -26 -45 -30 -45 -5 0 -17 18 -27 40 -28 62 -35 58 -33 -22z"/>
<path d="M1816 965 c-16 -36 -26 -68 -23 -71 3 -3 10 4 17 15 15 29 75 29 90
0 7 -11 14 -18 17 -15 7 7 -54 136 -64 136 -4 0 -21 -30 -37 -65z m58 8 l17
-33 -36 0 -35 0 17 35 c9 19 17 34 19 32 1 -1 9 -17 18 -34z"/>
<path d="M1950 960 l0 -70 31 0 c32 0 69 15 81 34 14 21 8 66 -12 86 -13 13
-33 20 -60 20 l-40 0 0 -70z m81 50 c28 -15 26 -74 -3 -94 -45 -32 -58 -22
-58 44 0 54 2 60 21 60 11 0 29 -5 40 -10z"/>
<path d="M2110 960 l0 -70 43 2 42 1 -37 4 c-34 4 -38 7 -38 33 0 26 4 29 38
33 l37 4 -37 1 c-33 2 -38 5 -38 26 0 21 5 25 38 29 l37 4 -42 1 -43 2 0 -70z"/>
<path d="M2295 964 c14 -37 25 -68 25 -70 0 -2 4 -4 8 -4 5 0 16 25 26 56 10
31 21 53 24 49 4 -3 14 -27 23 -53 9 -26 19 -47 23 -47 5 0 17 23 27 50 29 75
31 85 22 85 -5 0 -18 -26 -28 -57 -15 -48 -19 -54 -26 -38 -5 11 -16 38 -25
60 l-16 40 -19 -40 c-10 -22 -21 -49 -24 -60 -5 -15 -11 -7 -27 38 -11 31 -24
57 -29 57 -5 0 2 -30 16 -66z"/>
<path d="M2510 959 c0 -44 4 -68 10 -64 6 3 10 35 10 71 0 36 -4 64 -10 64 -6
0 -10 -30 -10 -71z"/>
<path d="M2573 1023 c26 -4 27 -6 27 -69 0 -36 4 -64 10 -64 6 0 10 28 10 64
0 63 1 65 28 69 15 2 -2 4 -38 4 -36 0 -53 -2 -37 -4z"/>
<path d="M2690 960 c0 -40 4 -70 10 -70 6 0 10 16 10 35 0 34 1 35 40 35 39 0
40 -1 40 -35 0 -19 5 -35 10 -35 6 0 10 30 10 70 0 40 -4 70 -10 70 -5 0 -10
-13 -10 -30 0 -28 -2 -30 -40 -30 -38 0 -40 2 -40 30 0 17 -4 30 -10 30 -6 0
-10 -30 -10 -70z"/>
<path d="M2912 963 l-2 -73 43 1 42 2 -35 6 -35 6 -6 65 -6 65 -1 -72z"/>
<path d="M3026 1014 c-25 -24 -21 -90 6 -108 56 -39 104 -2 99 76 -2 26 -30
48 -61 48 -16 0 -36 -7 -44 -16z m78 -10 c22 -22 20 -67 -4 -89 -45 -40 -100
28 -66 80 19 29 47 32 70 9z"/>
<path d="M3182 960 c17 -38 34 -70 38 -70 4 0 21 32 38 70 17 39 27 70 22 70
-4 0 -18 -25 -31 -55 -12 -30 -25 -55 -28 -55 -3 0 -17 25 -30 55 -13 30 -27
55 -32 55 -4 0 6 -31 23 -70z"/>
<path d="M3310 960 l0 -70 48 2 c43 1 44 2 10 5 -34 4 -38 7 -38 33 0 26 4 29
38 33 l37 4 -37 1 c-33 2 -38 5 -38 26 0 21 5 25 38 29 34 3 33 4 -10 5 l-48
2 0 -70z"/>
</g>
</svg>
